HIERARCHY
ROOT Hips
{
	OFFSET 0.00 0.00 0.00
	CHANNELS 6 Xposition Yposition Zposition Xrotation Yrotation Zrotation
	JOINT LeftUpLeg
	{
		OFFSET 3.76682 0.00000 0.00000
		CHANNELS 3 Xrotation Yrotation Zrotation
		JOINT LeftLeg
		{
			OFFSET 0.00000 -17.03178 0.00000
			CHANNELS 3 Xrotation Yrotation Zrotation
			JOINT LeftFoot
			{
				OFFSET 0.00000 -15.72190 0.00000
				CHANNELS 3 Xrotation Yrotation Zrotation
				JOINT LeftToeBase
				{
					OFFSET 0.00000 -1.61281 6.01911
					CHANNELS 3 Xrotation Yrotation Zrotation
					End Site
					{
						OFFSET 0.00000 0.00000 2.95275
					}
				}
			}
		}
	}
	JOINT RightUpLeg
	{
		OFFSET -3.76682 0.00000 0.00000
		CHANNELS 3 Xrotation Yrotation Zrotation
		JOINT RightLeg
		{
			OFFSET 0.00000 -17.03178 0.00000
			CHANNELS 3 Xrotation Yrotation Zrotation
			JOINT RightFoot
			{
				OFFSET 0.00000 -15.72190 0.00000
				CHANNELS 3 Xrotation Yrotation Zrotation
				JOINT RightToeBase
				{
					OFFSET 0.00000 -1.61281 6.01911
					CHANNELS 3 Xrotation Yrotation Zrotation
					End Site
					{
						OFFSET 0.00000 0.00000 2.95275
					}
				}
			}
		}
	}
	JOINT Spine
	{
		OFFSET 0.00000 0.03937 0.00000
		CHANNELS 3 Xrotation Yrotation Zrotation
		JOINT Spine1
		{
			OFFSET 0.00000 6.63648 0.00000
			CHANNELS 3 Xrotation Yrotation Zrotation
			JOINT Neck
			{
				OFFSET 0.00000 10.89313 0.00000
				CHANNELS 3 Xrotation Yrotation Zrotation
				JOINT Head
				{
					OFFSET 0.00000 5.84841 0.00000
					CHANNELS 3 Xrotation Yrotation Zrotation
					End Site
					{
						OFFSET 0.00000 4.52755 0.00000
					}
				}
			}
			JOINT LeftShoulder
			{
				OFFSET 0.00000 10.89313 0.00000
				CHANNELS 3 Xrotation Yrotation Zrotation
				JOINT LeftArm
				{
					OFFSET 7.21266 -0.00003 0.00000
					CHANNELS 3 Xrotation Yrotation Zrotation
					JOINT LeftForeArm
					{
						OFFSET 9.64829 -0.00004 0.00000
						CHANNELS 3 Xrotation Yrotation Zrotation
						JOINT LeftHand
						{
							OFFSET 9.06793 -0.00003 0.00000
							CHANNELS 3 Xrotation Yrotation Zrotation
							JOINT LeftHandThumb
							{
								OFFSET 0.00000 0.00000 0.00000
								CHANNELS 3 Xrotation Yrotation Zrotation
								End Site
								{
									OFFSET 0.00000 0.00000 3.93700
								}
							}
							JOINT L_Wrist_End
							{
								OFFSET 3.93700 -0.00001 0.00000
								CHANNELS 3 Xrotation Yrotation Zrotation
							}
						}
					}
				}
			}
			JOINT RightShoulder
			{
				OFFSET 0.00000 10.89313 0.00000
				CHANNELS 3 Xrotation Yrotation Zrotation
				JOINT RightArm
				{
					OFFSET -7.21266 -0.00003 0.00000
					CHANNELS 3 Xrotation Yrotation Zrotation
					JOINT RightForeArm
					{
						OFFSET -9.64829 -0.00004 0.00000
						CHANNELS 3 Xrotation Yrotation Zrotation
						JOINT RightHand
						{
							OFFSET -9.06793 -0.00003 0.00000
							CHANNELS 3 Xrotation Yrotation Zrotation
							JOINT RightHandThumb
							{
								OFFSET 0.00000 0.00000 0.00000
								CHANNELS 3 Xrotation Yrotation Zrotation
								End Site
								{
									OFFSET 0.00000 0.00000 3.93700
								}
							}
							JOINT R_Wrist_End
							{
								OFFSET -5.39369 -0.00002 0.00000
								CHANNELS 3 Xrotation Yrotation Zrotation
							}
						}
					}
				}
			}
		}
	}
}
MOTION
Frames: 14
Frame Time: 0.008333
 5.7198 35.3096 11.1729 -2.7932 2.0045 -5.2296 -16.4204 5.4898 15.2315 71.9271 -0.0000 0.0000 2.2278 3.6343 -11.4096 -12.1763 -0.0000 0.0000 -2.9813 -1.7279 11.4595 10.7361 -0.0000 0.0000 0.4614 -8.5234 -3.7560 -9.6302 -0.0000 -0.0000 -13.9507 -0.6504 0.1227 16.6188 3.4744 4.3085 23.4421 4.1591 8.0391 -17.1737 -2.9236 -11.3795 7.7446 -3.1700 7.8668 3.4803 -35.7894 -75.2880 -0.0001 -24.8347 -0.0000 17.2139 4.8731 -3.2863 -0.0000 -0.0000 -0.0000 -0.0000 -0.0000 -0.0000 7.6023 0.9482 -4.4688 7.0413 26.3511 70.5692 -0.0002 48.2981 0.0001 16.6320 -41.5600 -2.6774 -0.0000 0.0000 -0.0000 -0.0000 0.0000 -0.0000
 5.6912 35.3324 11.3681 -2.8627 1.4703 -5.0983 -17.2266 5.6129 15.1349 71.9088 -0.0000 0.0000 1.7531 4.0387 -11.2699 -11.9037 0.0000 0.0000 -2.4621 -1.4860 11.4011 10.4269 -0.0000 0.0000 0.3500 -8.1925 -3.9681 -9.6023 0.0000 -0.0000 -13.9358 -0.4609 0.1155 16.6315 3.6335 4.2029 23.4095 4.2815 7.9392 -17.0096 -2.9693 -11.2951 7.8854 -3.0499 7.8790 3.6856 -35.4339 -75.2204 -0.0001 -24.1306 -0.0000 17.1237 4.9725 -3.6711 -0.0000 0.0000 -0.0000 -0.0000 0.0000 -0.0000 7.5365 1.0401 -4.5836 6.7215 26.2443 70.5950 -0.0002 48.8160 0.0001 16.4001 -41.4838 -2.9448 0.0000 -0.0000 0.0000 0.0000 -0.0000 0.0000
 5.6817 35.3561 11.5650 -3.0779 0.7100 -4.7423 -17.7480 6.0034 14.8105 71.5841 -0.0000 0.0000 1.4443 4.3105 -11.0141 -12.0725 0.0000 -0.0000 -1.9410 -0.6481 11.1060 10.2093 -0.0000 0.0000 0.0490 -8.1612 -3.8117 -9.4464 -0.0000 0.0000 -13.9032 -0.1200 0.0948 16.8083 3.8776 3.9044 23.5167 4.3730 7.9416 -17.1675 -2.9045 -11.3386 7.7011 -3.1380 7.8631 4.3306 -34.6330 -75.1272 -0.0001 -23.7717 -0.0000 17.2646 5.2310 -4.1910 -0.0000 0.0000 -0.0000 -0.0000 0.0000 -0.0000 7.5155 1.2347 -4.6730 6.4580 26.0708 70.5377 -0.0002 49.5032 0.0001 16.4869 -41.7619 -2.9691 -0.0000 -0.0000 -0.0000 -0.0000 -0.0000 -0.0000
 5.6531 35.3753 11.7577 -3.0938 0.4144 -4.6862 -18.5521 5.7836 14.6830 71.2893 -0.0000 0.0000 1.1566 4.3710 -10.9382 -12.2015 0.0000 -0.0000 -1.3718 -1.0314 11.0609 9.8930 -0.0000 0.0000 0.0364 -7.4561 -4.0069 -9.6684 0.0000 0.0000 -13.8834 -0.0482 0.1049 16.7891 3.9284 3.8489 23.4642 4.4249 7.8572 -16.9896 -2.9136 -11.3421 7.8005 -3.0262 7.8722 4.6765 -34.5323 -74.9275 -0.0001 -23.1476 -0.0000 17.0769 5.2734 -4.4011 -0.0000 -0.0000 0.0000 -0.0000 -0.0000 0.0000 7.3080 1.2619 -4.7805 6.2403 25.9427 70.5979 -0.0003 50.0039 0.0001 16.5569 -41.6947 -2.9795 -0.0000 0.0000 -0.0000 -0.0000 0.0000 -0.0000
 5.6308 35.3940 11.9595 -3.1167 -0.0369 -4.6043 -19.2356 5.7423 14.5193 70.7427 -0.0000 0.0000 1.0522 4.3782 -9.8279 -12.6578 -0.0000 -0.0000 -0.8654 -0.9140 10.9992 9.5741 -0.0000 -0.0000 -0.0263 -7.0546 -4.1918 -9.6258 0.0000 0.0000 -13.8774 0.0563 0.1259 16.7396 3.9987 3.7622 23.5128 4.5631 7.7651 -16.9040 -2.8999 -11.3741 7.9057 -2.8832 7.8385 5.0881 -34.4169 -74.7755 -0.0001 -22.4430 -0.0000 16.9031 5.1045 -3.9949 0.0000 -0.0000 0.0000 0.0000 -0.0000 0.0000 7.1238 1.3947 -4.8959 6.1148 25.8836 70.6096 -0.0003 50.4707 0.0001 16.0638 -41.4576 -3.4809 0.0000 0.0000 -0.0000 0.0000 0.0000 -0.0000
 5.6063 35.4111 12.1542 -3.1340 -0.5033 -4.5028 -19.8707 5.6359 14.3491 70.0509 -0.0000 0.0000 0.5973 4.2525 -10.2015 -12.2763 0.0000 0.0000 -0.4003 -0.8234 10.9191 9.3255 -0.0000 -0.0000 -0.1000 -6.6392 -4.3109 -9.6430 0.0000 -0.0000 -13.8535 0.1715 0.1373 16.7027 4.0729 3.6532 23.6848 4.6519 7.7706 -17.0993 -2.7881 -11.5595 8.0157 -2.6873 7.7832 5.4692 -34.1215 -74.5478 -0.0001 -21.9912 -0.0000 16.5590 5.0266 -3.9534 -0.0000 -0.0000 0.0000 -0.0000 -0.0000 0.0000 6.9375 1.5448 -4.9738 6.0094 25.7886 70.5942 -0.0003 51.0097 0.0001 15.9583 -41.3818 -3.6767 -0.0000 0.0000 0.0000 -0.0000 0.0000 0.0000
 5.5970 35.4275 12.3473 -3.2044 -1.1172 -4.2636 -20.3252 5.6405 14.0155 69.0995 -0.0000 0.0000 0.4155 4.0101 -10.4441 -12.4158 0.0000 -0.0000 0.0045 -0.7190 10.6572 9.3141 -0.0000 -0.0000 -0.3434 -6.0854 -4.3180 -9.6308 0.0000 0.0000 -13.7854 0.3317 0.1667 16.6664 4.1279 3.3920 23.9667 4.8762 7.7117 -17.4285 -2.6755 -11.7105 7.8198 -2.5133 7.6371 6.3196 -33.6674 -74.2004 -0.0001 -21.7920 -0.0000 16.0828 5.0246 -3.9512 0.0000 -0.0000 -0.0000 0.0000 -0.0000 -0.0000 6.9256 1.9169 -4.9982 5.8625 25.5492 70.4930 -0.0003 51.6932 0.0001 15.9281 -41.5622 -3.7371 0.0000 0.0000 -0.0000 0.0000 0.0000 -0.0000
 5.5785 35.4338 12.5368 -3.1735 -1.4093 -4.2321 -20.9561 5.2191 13.7875 68.1826 -0.0000 0.0000 0.2377 3.7571 -10.5129 -12.4496 0.0000 -0.0000 0.5026 -1.0279 10.5957 9.0044 -0.0000 -0.0000 -0.4113 -5.3910 -4.4206 -9.8558 0.0000 -0.0000 -13.7552 0.3928 0.1979 16.6007 4.1672 3.3472 23.8442 4.8938 7.6137 -17.1912 -2.6906 -11.6695 8.0282 -2.3543 7.6710 6.4919 -33.4879 -74.0870 -0.0001 -21.3606 -0.0000 16.1858 5.1458 -3.9048 -0.0000 0.0000 0.0000 -0.0000 0.0000 0.0000 6.6853 1.9501 -5.1121 5.8121 25.5066 70.4905 -0.0003 52.2322 0.0001 15.9852 -41.5167 -3.7657 -0.0000 -0.0000 0.0000 -0.0000 -0.0000 0.0000
 5.5710 35.4465 12.7286 -3.1675 -1.9807 -4.0508 -21.3984 5.1014 13.4555 66.9526 -0.0000 0.0000 0.1546 3.5232 -10.5060 -12.3506 0.0000 -0.0000 0.8713 -0.9532 10.3914 8.8917 -0.0000 0.0000 -0.5759 -4.9177 -4.7089 -9.8171 0.0000 -0.0000 -13.6872 0.5040 0.2606 16.4834 4.1724 3.1078 24.1197 5.2049 7.4966 -17.5163 -2.5700 -11.7482 8.0952 -2.0853 7.4816 7.0928 -33.0532 -73.6863 -0.0001 -21.1888 -0.0000 16.2883 5.1801 -4.1096 0.0000 0.0000 0.0000 0.0000 0.0000 0.0000 6.5591 2.2618 -5.1140 5.7350 25.3840 70.3370 -0.0003 52.7625 0.0001 16.1428 -41.4929 -3.4732 0.0000 -0.0000 -0.0000 0.0000 -0.0000 -0.0000
 5.5541 35.4485 12.9232 -3.1070 -2.2823 -4.0398 -21.9068 4.5914 13.2111 65.7048 -0.0000 0.0000 -0.0064 3.2687 -10.9782 -12.3978 -0.0000 0.0000 1.3355 -1.4366 10.3266 8.6686 -0.0000 0.0000 -0.6804 -4.0180 -4.6466 -9.8639 0.0000 -0.0000 -13.6723 0.5565 0.3050 16.3799 4.2043 3.0736 23.9354 5.2798 7.3369 -17.1379 -2.6224 -11.5987 8.3643 -1.8940 7.5190 7.1963 -32.8184 -73.5920 -0.0001 -20.8980 -0.0000 16.0908 5.2739 -3.8613 -0.0000 0.0000 -0.0000 -0.0000 0.0000 -0.0000 6.3693 2.2975 -5.1975 5.6838 25.3564 70.3178 -0.0003 53.2659 0.0001 16.3290 -41.4569 -3.4498 -0.0000 0.0000 -0.0000 -0.0000 0.0000 -0.0000
 5.5450 35.4550 13.1100 -3.0449 -2.8157 -3.9367 -22.3480 4.3472 12.9364 64.2518 -0.0000 0.0000 -0.0242 3.1001 -10.6300 -12.2857 -0.0000 0.0000 1.6398 -1.2222 10.2059 8.4862 -0.0000 0.0000 -0.7274 -3.7137 -4.8319 -10.1805 0.0000 0.0000 -13.6267 0.6380 0.3825 16.2616 4.2097 2.9161 24.1634 5.5351 7.2293 -17.4650 -2.5002 -11.7303 8.5660 -1.5849 7.3194 7.5682 -32.3286 -73.2241 -0.0001 -20.8069 -0.0000 16.2925 5.2996 -3.9100 0.0000 -0.0000 -0.0000 0.0000 -0.0000 -0.0000 6.2740 2.5487 -5.2165 5.5564 25.3658 70.1983 -0.0003 53.6732 0.0001 16.7037 -41.4659 -3.3766 0.0000 0.0000 -0.0000 0.0000 0.0000 -0.0000
 5.5345 35.4529 13.3028 -2.9625 -3.1449 -3.9237 -22.7205 3.7905 12.6529 62.6630 -0.0000 0.0000 -0.1064 2.9949 -11.0334 -12.4471 0.0000 -0.0000 1.9969 -1.4206 10.1572 8.3420 -0.0000 0.0000 -0.8810 -3.1306 -4.9881 -10.0251 0.0000 -0.0000 -13.6091 0.6810 0.4424 16.1459 4.2264 2.8766 24.0218 5.6965 7.0517 -17.1788 -2.5041 -11.5796 8.7580 -1.3786 7.3154 7.7550 -32.0942 -73.0785 -0.0001 -20.5907 -0.0000 16.1379 5.3293 -4.0367 0.0000 -0.0000 -0.0000 0.0000 -0.0000 -0.0000 6.0788 2.6190 -5.2937 5.5589 25.4049 70.1323 -0.0003 54.1462 0.0001 16.5801 -41.4605 -3.4663 0.0000 0.0000 -0.0000 0.0000 0.0000 -0.0000
 5.5226 35.4507 13.4977 -2.8678 -3.5992 -3.9057 -23.0469 3.3727 12.4270 60.9272 -0.0000 0.0000 0.0425 2.9622 -11.0244 -12.9074 0.0000 -0.0000 2.3235 -1.3690 10.1143 8.1304 -0.0000 0.0000 -0.9026 -2.7194 -5.2135 -10.1468 0.0000 0.0000 -13.6012 0.7410 0.5137 16.0233 4.2530 2.8227 24.1124 5.8368 6.9672 -17.2987 -2.4262 -11.6762 8.9964 -1.0914 7.2183 7.9732 -31.7581 -72.8315 -0.0001 -20.4805 -0.0000 16.1775 5.3469 -4.0615 0.0000 0.0000 0.0000 0.0000 0.0000 0.0000 5.9582 2.7460 -5.3466 5.4518 25.4324 70.0599 -0.0003 54.5811 0.0002 16.7506 -41.5211 -3.2946 -0.0000 0.0000 -0.0000 -0.0000 0.0000 -0.0000
 5.5139 35.4475 13.6877 -2.7822 -4.1773 -3.8362 -23.3301 3.0795 12.1951 59.1201 -0.0000 0.0000 -0.0226 3.1219 -11.0815 -12.4215 -0.0000 0.0000 2.5534 -1.1720 10.0013 8.0631 0.0000 0.0000 -0.9731 -2.3018 -5.3960 -10.3904 0.0000 0.0000 -13.5752 0.8151 0.6084 15.8932 4.2632 2.7015 24.3770 6.0962 6.8188 -17.6855 -2.3977 -11.8369 9.2094 -0.7698 7.0441 8.2725 -31.2870 -72.5485 -0.0001 -20.4957 -0.0000 15.9540 5.4935 -3.9497 -0.0000 0.0000 0.0000 -0.0000 0.0000 0.0000 6.1011 2.9621 -5.3919 5.1061 25.4812 69.9812 -0.0003 55.0005 0.0002 16.7470 -41.5625 -3.3022 0.0000 -0.0000 -0.0000 0.0000 -0.0000 -0.0000
